<?xml version="1.0" standalone="no"?><!DOCTYPE svg PUBLIC "-//W3C//DTD SVG 1.1//EN" "http://www.w3.org/Graphics/SVG/1.1/DTD/svg11.dtd"><svg t="1645635473508" class="icon" viewBox="0 0 1024 1024" version="1.1" xmlns="http://www.w3.org/2000/svg" p-id="45240" xmlns:xlink="http://www.w3.org/1999/xlink" width="128" height="128"><defs><style type="text/css"></style></defs><path d="M681.9 718.1H342.7c-17.7 0-32-14.3-32-32s14.3-32 32-32h339.2c17.7 0 32 14.3 32 32s-14.3 32-32 32zM681.9 445.1H342.7c-17.7 0-32-14.3-32-32s14.3-32 32-32h339.2c17.7 0 32 14.3 32 32s-14.3 32-32 32zM574.9 161.1H453.7c-27.6 0-50-22.4-50-50s22.4-50 50-50h121.2c27.6 0 50 22.4 50 50s-22.4 50-50 50z" fill="#fadb06" p-id="45241" data-spm-anchor-id="a313x.7781069.0.i143" class=""></path><path d="M772.3 957h-520c-50.7 0-92-41.3-92-92V184.7c0-50.7 41.3-92 92-92H320c17.7 0 32 14.3 32 32s-14.3 32-32 32h-67.7c-15.4 0-28 12.6-28 28V865c0 15.4 12.6 28 28 28h520c15.4 0 28-12.6 28-28V184.7c0-15.4-12.6-28-28-28h-68.2c-17.7 0-32-14.3-32-32s14.3-32 32-32h68.2c50.7 0 92 41.3 92 92V865c0 50.7-41.2 92-92 92z" fill="#626262" p-id="45242" data-spm-anchor-id="a313x.7781069.0.i145" class="selected"></path></svg>