<?xml version="1.0" standalone="no"?><!DOCTYPE svg PUBLIC "-//W3C//DTD SVG 1.1//EN" "http://www.w3.org/Graphics/SVG/1.1/DTD/svg11.dtd"><svg t="1650308716988" class="icon" viewBox="0 0 1024 1024" version="1.1" xmlns="http://www.w3.org/2000/svg" p-id="3533" xmlns:xlink="http://www.w3.org/1999/xlink" width="500" height="500"><defs><style type="text/css">@font-face { font-family: feedback-iconfont; src: url("//at.alicdn.com/t/font_1031158_u69w8yhxdu.woff2?t=1630033759944") format("woff2"), url("//at.alicdn.com/t/font_1031158_u69w8yhxdu.woff?t=1630033759944") format("woff"), url("//at.alicdn.com/t/font_1031158_u69w8yhxdu.ttf?t=1630033759944") format("truetype"); }
</style></defs><path d="M418.133333 465.066667H243.2V285.866667c0-21.333333 17.066667-38.4 38.4-38.4h174.933333V426.666667c0 21.333333-17.066667 38.4-38.4 38.4zM418.133333 776.533333H243.2V597.333333c0-21.333333 17.066667-38.4 38.4-38.4h174.933333v174.933334c0 25.6-17.066667 42.666667-38.4 42.666666zM567.466667 465.066667h174.933333c21.333333 0 38.4-17.066667 38.4-38.4V247.466667h-174.933333c-21.333333 0-38.4 17.066667-38.4 38.4v179.2zM567.466667 776.533333h174.933333c21.333333 0 38.4-17.066667 38.4-38.4v-174.933333h-174.933333c-21.333333 0-38.4 17.066667-38.4 38.4v174.933333z" fill="#9be15d" p-id="3534" data-spm-anchor-id="a313x.7781069.0.i8" class="selected"></path><path d="M388.266667 473.6H128V213.333333c0-42.666667 34.133333-76.8 76.8-76.8h260.266667v260.266667c0 42.666667-34.133333 76.8-76.8 76.8zM179.2 422.4h209.066667c12.8 0 25.6-12.8 25.6-25.6V187.733333H204.8c-12.8 0-25.6 8.533333-25.6 25.6v209.066667zM388.266667 887.466667H128v-260.266667c0-42.666667 34.133333-76.8 76.8-76.8h260.266667V810.666667c0 42.666667-34.133333 76.8-76.8 76.8z m-209.066667-51.2h209.066667c12.8 0 25.6-12.8 25.6-25.6v-209.066667H204.8c-12.8 0-25.6 12.8-25.6 25.6v209.066667zM819.2 473.6h-260.266667V213.333333c0-42.666667 34.133333-76.8 76.8-76.8H896v260.266667c0 42.666667-34.133333 76.8-76.8 76.8z m-209.066667-51.2h209.066667c12.8 0 25.6-12.8 25.6-25.6V187.733333h-209.066667c-12.8 0-25.6 12.8-25.6 25.6v209.066667zM819.2 887.466667h-260.266667v-260.266667c0-42.666667 34.133333-76.8 76.8-76.8H896V810.666667c0 42.666667-34.133333 76.8-76.8 76.8z m-209.066667-51.2h209.066667c12.8 0 25.6-12.8 25.6-25.6v-209.066667h-209.066667c-12.8 0-25.6 12.8-25.6 25.6v209.066667z" fill="#6A3906" p-id="3535"></path></svg>