<?xml version="1.0" standalone="no"?><!DOCTYPE svg PUBLIC "-//W3C//DTD SVG 1.1//EN" "http://www.w3.org/Graphics/SVG/1.1/DTD/svg11.dtd"><svg t="1645633908210" class="icon" viewBox="0 0 1024 1024" version="1.1" xmlns="http://www.w3.org/2000/svg" p-id="12207" xmlns:xlink="http://www.w3.org/1999/xlink" width="128" height="128"><defs><style type="text/css"></style></defs><path d="M898.56 186.88c-7.68 281.6-66.56 448-176.64 499.2S414.72 768 122.88 783.36h775.68V186.88z" fill="#2f2f2f" p-id="12208" data-spm-anchor-id="a313x.7781069.0.i43" class="selected"></path><path d="M153.6 217.6c-7.68 0-12.8 5.12-12.8 12.8V768c0 7.68 5.12 12.8 12.8 12.8h716.8c7.68 0 12.8-5.12 12.8-12.8V230.4c0-7.68-5.12-12.8-12.8-12.8H153.6z m0-38.4h716.8c28.16 0 51.2 23.04 51.2 51.2V768c0 28.16-23.04 51.2-51.2 51.2H153.6c-28.16 0-51.2-23.04-51.2-51.2V230.4c0-28.16 23.04-51.2 51.2-51.2z" fill="#2f2f2f" p-id="12209" data-spm-anchor-id="a313x.7781069.0.i44" class="selected"></path><path d="M268.8 430.08c-46.08 0-81.92-38.4-81.92-81.92s38.4-81.92 81.92-81.92 81.92 38.4 81.92 81.92-35.84 81.92-81.92 81.92z m0-40.96c25.6 0 46.08-20.48 46.08-46.08s-20.48-46.08-46.08-46.08-46.08 20.48-46.08 46.08 20.48 46.08 46.08 46.08zM158.72 578.56c-5.12-10.24 0-20.48 10.24-25.6s20.48 0 25.6 10.24c53.76 115.2 143.36 130.56 253.44-5.12 143.36-176.64 296.96-171.52 419.84 20.48 5.12 7.68 2.56 20.48-5.12 25.6-7.68 5.12-20.48 2.56-25.6-5.12-107.52-168.96-230.4-174.08-358.4-15.36-130.56 153.6-253.44 135.68-320-5.12z" fill="#fadb06" p-id="12210" data-spm-anchor-id="a313x.7781069.0.i40" class=""></path></svg>